solid CATIA STL
  facet normal  0.000000e+000  1.000000e+000  0.000000e+000
    outer loop
      vertex -2.250000e+000  1.500000e+001  4.500000e+000
      vertex  2.250000e+000  1.500000e+001  4.500000e+000
      vertex -6.123032e-017  1.500000e+001  3.250000e+000
    endloop
  endfacet
  facet normal  0.000000e+000  1.000000e+000  0.000000e+000
    outer loop
      vertex -2.250000e+000  1.500000e+001  4.500000e+000
      vertex -6.123032e-017  1.500000e+001  3.250000e+000
      vertex -2.588190e-001  1.500000e+001  3.215926e+000
    endloop
  endfacet
  facet normal  0.000000e+000  1.000000e+000  0.000000e+000
    outer loop
      vertex -2.250000e+000  1.500000e+001  4.500000e+000
      vertex -2.588190e-001  1.500000e+001  3.215926e+000
      vertex -5.000000e-001  1.500000e+001  3.116025e+000
    endloop
  endfacet
  facet normal  0.000000e+000  1.000000e+000  0.000000e+000
    outer loop
      vertex -2.250000e+000  1.500000e+001  4.500000e+000
      vertex -5.000000e-001  1.500000e+001  3.116025e+000
      vertex -7.071068e-001  1.500000e+001  2.957107e+000
    endloop
  endfacet
  facet normal  0.000000e+000  1.000000e+000  0.000000e+000
    outer loop
      vertex -2.250000e+000  1.500000e+001  4.500000e+000
      vertex -7.071068e-001  1.500000e+001  2.957107e+000
      vertex -8.660254e-001  1.500000e+001  2.750000e+000
    endloop
  endfacet
  facet normal  0.000000e+000  1.000000e+000  0.000000e+000
    outer loop
      vertex -2.250000e+000  1.500000e+001  4.500000e+000
      vertex -8.660254e-001  1.500000e+001  2.750000e+000
      vertex -2.250000e+000  1.500000e+001  0.000000e+000
    endloop
  endfacet
  facet normal  0.000000e+000  1.000000e+000  0.000000e+000
    outer loop
      vertex -2.250000e+000  1.500000e+001  0.000000e+000
      vertex -8.660254e-001  1.500000e+001  2.750000e+000
      vertex -9.659258e-001  1.500000e+001  2.508819e+000
    endloop
  endfacet
  facet normal  0.000000e+000  1.000000e+000  0.000000e+000
    outer loop
      vertex -2.250000e+000  1.500000e+001  0.000000e+000
      vertex -9.659258e-001  1.500000e+001  2.508819e+000
      vertex -1.000000e+000  1.500000e+001  2.250000e+000
    endloop
  endfacet
  facet normal  0.000000e+000  1.000000e+000  0.000000e+000
    outer loop
      vertex -2.250000e+000  1.500000e+001  0.000000e+000
      vertex -1.000000e+000  1.500000e+001  2.250000e+000
      vertex -9.659258e-001  1.500000e+001  1.991181e+000
    endloop
  endfacet
  facet normal  0.000000e+000  1.000000e+000  0.000000e+000
    outer loop
      vertex -2.250000e+000  1.500000e+001  0.000000e+000
      vertex -9.659258e-001  1.500000e+001  1.991181e+000
      vertex -8.660254e-001  1.500000e+001  1.750000e+000
    endloop
  endfacet
  facet normal  0.000000e+000  1.000000e+000  0.000000e+000
    outer loop
      vertex -2.250000e+000  1.500000e+001  0.000000e+000
      vertex -8.660254e-001  1.500000e+001  1.750000e+000
      vertex -7.071068e-001  1.500000e+001  1.542893e+000
    endloop
  endfacet
  facet normal  0.000000e+000  1.000000e+000  0.000000e+000
    outer loop
      vertex -2.250000e+000  1.500000e+001  0.000000e+000
      vertex -7.071068e-001  1.500000e+001  1.542893e+000
      vertex -5.000000e-001  1.500000e+001  1.383975e+000
    endloop
  endfacet
  facet normal  0.000000e+000  1.000000e+000  0.000000e+000
    outer loop
      vertex -2.250000e+000  1.500000e+001  0.000000e+000
      vertex -5.000000e-001  1.500000e+001  1.383975e+000
      vertex -2.588190e-001  1.500000e+001  1.284074e+000
    endloop
  endfacet
  facet normal  0.000000e+000  1.000000e+000  0.000000e+000
    outer loop
      vertex -2.250000e+000  1.500000e+001  0.000000e+000
      vertex -2.588190e-001  1.500000e+001  1.284074e+000
      vertex  1.836910e-016  1.500000e+001  1.250000e+000
    endloop
  endfacet
  facet normal  0.000000e+000  1.000000e+000  0.000000e+000
    outer loop
      vertex -2.250000e+000  1.500000e+001  0.000000e+000
      vertex  1.836910e-016  1.500000e+001  1.250000e+000
      vertex  2.250000e+000  1.500000e+001  0.000000e+000
    endloop
  endfacet
  facet normal  -0.000000e+000  1.000000e+000  0.000000e+000
    outer loop
      vertex  2.250000e+000  1.500000e+001  0.000000e+000
      vertex  1.836910e-016  1.500000e+001  1.250000e+000
      vertex  2.588190e-001  1.500000e+001  1.284074e+000
    endloop
  endfacet
  facet normal  -0.000000e+000  1.000000e+000  0.000000e+000
    outer loop
      vertex  2.250000e+000  1.500000e+001  0.000000e+000
      vertex  2.588190e-001  1.500000e+001  1.284074e+000
      vertex  5.000000e-001  1.500000e+001  1.383975e+000
    endloop
  endfacet
  facet normal  -0.000000e+000  1.000000e+000  0.000000e+000
    outer loop
      vertex  2.250000e+000  1.500000e+001  0.000000e+000
      vertex  5.000000e-001  1.500000e+001  1.383975e+000
      vertex  7.071068e-001  1.500000e+001  1.542893e+000
    endloop
  endfacet
  facet normal  -0.000000e+000  1.000000e+000  0.000000e+000
    outer loop
      vertex  2.250000e+000  1.500000e+001  0.000000e+000
      vertex  7.071068e-001  1.500000e+001  1.542893e+000
      vertex  8.660254e-001  1.500000e+001  1.750000e+000
    endloop
  endfacet
  facet normal  -0.000000e+000  1.000000e+000  0.000000e+000
    outer loop
      vertex  2.250000e+000  1.500000e+001  0.000000e+000
      vertex  8.660254e-001  1.500000e+001  1.750000e+000
      vertex  9.659258e-001  1.500000e+001  1.991181e+000
    endloop
  endfacet
  facet normal  -0.000000e+000  1.000000e+000  0.000000e+000
    outer loop
      vertex  2.250000e+000  1.500000e+001  0.000000e+000
      vertex  9.659258e-001  1.500000e+001  1.991181e+000
      vertex  1.000000e+000  1.500000e+001  2.250000e+000
    endloop
  endfacet
  facet normal  -0.000000e+000  1.000000e+000  -0.000000e+000
    outer loop
      vertex  2.250000e+000  1.500000e+001  0.000000e+000
      vertex  1.000000e+000  1.500000e+001  2.250000e+000
      vertex  9.659258e-001  1.500000e+001  2.508819e+000
    endloop
  endfacet
  facet normal  -0.000000e+000  9.999999e-001  -0.000000e+000
    outer loop
      vertex  2.250000e+000  1.500000e+001  0.000000e+000
      vertex  9.659258e-001  1.500000e+001  2.508819e+000
      vertex  8.660254e-001  1.500000e+001  2.750000e+000
    endloop
  endfacet
  facet normal  0.000000e+000  1.000000e+000  -0.000000e+000
    outer loop
      vertex  2.250000e+000  1.500000e+001  4.500000e+000
      vertex  2.250000e+000  1.500000e+001  0.000000e+000
      vertex  8.660254e-001  1.500000e+001  2.750000e+000
    endloop
  endfacet
  facet normal  0.000000e+000  1.000000e+000  -0.000000e+000
    outer loop
      vertex  2.250000e+000  1.500000e+001  4.500000e+000
      vertex  8.660254e-001  1.500000e+001  2.750000e+000
      vertex  7.071068e-001  1.500000e+001  2.957107e+000
    endloop
  endfacet
  facet normal  0.000000e+000  1.000000e+000  -0.000000e+000
    outer loop
      vertex  2.250000e+000  1.500000e+001  4.500000e+000
      vertex  7.071068e-001  1.500000e+001  2.957107e+000
      vertex  5.000000e-001  1.500000e+001  3.116025e+000
    endloop
  endfacet
  facet normal  0.000000e+000  1.000000e+000  -0.000000e+000
    outer loop
      vertex  2.250000e+000  1.500000e+001  4.500000e+000
      vertex  5.000000e-001  1.500000e+001  3.116025e+000
      vertex  2.588190e-001  1.500000e+001  3.215926e+000
    endloop
  endfacet
  facet normal  0.000000e+000  1.000000e+000  -0.000000e+000
    outer loop
      vertex  2.250000e+000  1.500000e+001  4.500000e+000
      vertex  2.588190e-001  1.500000e+001  3.215926e+000
      vertex -6.123032e-017  1.500000e+001  3.250000e+000
    endloop
  endfacet
  facet normal  1.305262e-001  0.000000e+000  9.914448e-001
    outer loop
      vertex  1.836910e-016  3.000000e+000  1.250000e+000
      vertex -2.588190e-001  1.500000e+001  1.284074e+000
      vertex -2.588190e-001  3.000000e+000  1.284074e+000
    endloop
  endfacet
  facet normal  3.826832e-001  -0.000000e+000  9.238796e-001
    outer loop
      vertex -2.588190e-001  3.000000e+000  1.284074e+000
      vertex -2.588190e-001  1.500000e+001  1.284074e+000
      vertex -5.000000e-001  1.500000e+001  1.383975e+000
    endloop
  endfacet
  facet normal  3.826832e-001  0.000000e+000  9.238796e-001
    outer loop
      vertex -2.588190e-001  3.000000e+000  1.284074e+000
      vertex -5.000000e-001  1.500000e+001  1.383975e+000
      vertex -5.000000e-001  3.000000e+000  1.383975e+000
    endloop
  endfacet
  facet normal  6.087614e-001  -0.000000e+000  7.933533e-001
    outer loop
      vertex -5.000000e-001  3.000000e+000  1.383975e+000
      vertex -5.000000e-001  1.500000e+001  1.383975e+000
      vertex -7.071068e-001  1.500000e+001  1.542893e+000
    endloop
  endfacet
  facet normal  6.087614e-001  0.000000e+000  7.933533e-001
    outer loop
      vertex -5.000000e-001  3.000000e+000  1.383975e+000
      vertex -7.071068e-001  1.500000e+001  1.542893e+000
      vertex -7.071068e-001  3.000000e+000  1.542893e+000
    endloop
  endfacet
  facet normal  7.933533e-001  -0.000000e+000  6.087613e-001
    outer loop
      vertex -7.071068e-001  3.000000e+000  1.542893e+000
      vertex -7.071068e-001  1.500000e+001  1.542893e+000
      vertex -8.660254e-001  1.500000e+001  1.750000e+000
    endloop
  endfacet
  facet normal  7.933533e-001  0.000000e+000  6.087613e-001
    outer loop
      vertex -7.071068e-001  3.000000e+000  1.542893e+000
      vertex -8.660254e-001  1.500000e+001  1.750000e+000
      vertex -8.660254e-001  3.000000e+000  1.750000e+000
    endloop
  endfacet
  facet normal  9.238796e-001  -0.000000e+000  3.826835e-001
    outer loop
      vertex -8.660254e-001  3.000000e+000  1.750000e+000
      vertex -8.660254e-001  1.500000e+001  1.750000e+000
      vertex -9.659258e-001  1.500000e+001  1.991181e+000
    endloop
  endfacet
  facet normal  9.238796e-001  0.000000e+000  3.826835e-001
    outer loop
      vertex -8.660254e-001  3.000000e+000  1.750000e+000
      vertex -9.659258e-001  1.500000e+001  1.991181e+000
      vertex -9.659258e-001  3.000000e+000  1.991181e+000
    endloop
  endfacet
  facet normal  9.914449e-001  -0.000000e+000  1.305262e-001
    outer loop
      vertex -9.659258e-001  3.000000e+000  1.991181e+000
      vertex -9.659258e-001  1.500000e+001  1.991181e+000
      vertex -1.000000e+000  1.500000e+001  2.250000e+000
    endloop
  endfacet
  facet normal  9.914449e-001  0.000000e+000  1.305262e-001
    outer loop
      vertex -9.659258e-001  3.000000e+000  1.991181e+000
      vertex -1.000000e+000  1.500000e+001  2.250000e+000
      vertex -1.000000e+000  3.000000e+000  2.250000e+000
    endloop
  endfacet
  facet normal  1.305262e-001  -0.000000e+000  9.914448e-001
    outer loop
      vertex -2.588190e-001  1.500000e+001  1.284074e+000
      vertex  1.836910e-016  3.000000e+000  1.250000e+000
      vertex  1.836910e-016  1.500000e+001  1.250000e+000
    endloop
  endfacet
  facet normal -1.305262e-001  0.000000e+000  9.914448e-001
    outer loop
      vertex  1.836910e-016  1.500000e+001  1.250000e+000
      vertex  1.836910e-016  3.000000e+000  1.250000e+000
      vertex  2.588190e-001  3.000000e+000  1.284074e+000
    endloop
  endfacet
  facet normal -1.305262e-001  0.000000e+000  9.914448e-001
    outer loop
      vertex  1.836910e-016  1.500000e+001  1.250000e+000
      vertex  2.588190e-001  3.000000e+000  1.284074e+000
      vertex  2.588190e-001  1.500000e+001  1.284074e+000
    endloop
  endfacet
  facet normal -3.826832e-001  0.000000e+000  9.238796e-001
    outer loop
      vertex  2.588190e-001  1.500000e+001  1.284074e+000
      vertex  2.588190e-001  3.000000e+000  1.284074e+000
      vertex  5.000000e-001  3.000000e+000  1.383975e+000
    endloop
  endfacet
  facet normal -3.826832e-001  0.000000e+000  9.238796e-001
    outer loop
      vertex  2.588190e-001  1.500000e+001  1.284074e+000
      vertex  5.000000e-001  3.000000e+000  1.383975e+000
      vertex  5.000000e-001  1.500000e+001  1.383975e+000
    endloop
  endfacet
  facet normal -6.087614e-001  0.000000e+000  7.933533e-001
    outer loop
      vertex  5.000000e-001  1.500000e+001  1.383975e+000
      vertex  5.000000e-001  3.000000e+000  1.383975e+000
      vertex  7.071068e-001  3.000000e+000  1.542893e+000
    endloop
  endfacet
  facet normal -6.087614e-001  0.000000e+000  7.933533e-001
    outer loop
      vertex  5.000000e-001  1.500000e+001  1.383975e+000
      vertex  7.071068e-001  3.000000e+000  1.542893e+000
      vertex  7.071068e-001  1.500000e+001  1.542893e+000
    endloop
  endfacet
  facet normal -7.933533e-001  0.000000e+000  6.087613e-001
    outer loop
      vertex  7.071068e-001  1.500000e+001  1.542893e+000
      vertex  7.071068e-001  3.000000e+000  1.542893e+000
      vertex  8.660254e-001  3.000000e+000  1.750000e+000
    endloop
  endfacet
  facet normal -7.933533e-001  0.000000e+000  6.087613e-001
    outer loop
      vertex  7.071068e-001  1.500000e+001  1.542893e+000
      vertex  8.660254e-001  3.000000e+000  1.750000e+000
      vertex  8.660254e-001  1.500000e+001  1.750000e+000
    endloop
  endfacet
  facet normal -9.238796e-001  0.000000e+000  3.826835e-001
    outer loop
      vertex  8.660254e-001  1.500000e+001  1.750000e+000
      vertex  8.660254e-001  3.000000e+000  1.750000e+000
      vertex  9.659258e-001  3.000000e+000  1.991181e+000
    endloop
  endfacet
  facet normal -9.238796e-001  0.000000e+000  3.826835e-001
    outer loop
      vertex  8.660254e-001  1.500000e+001  1.750000e+000
      vertex  9.659258e-001  3.000000e+000  1.991181e+000
      vertex  9.659258e-001  1.500000e+001  1.991181e+000
    endloop
  endfacet
  facet normal -9.914449e-001  0.000000e+000  1.305262e-001
    outer loop
      vertex  9.659258e-001  1.500000e+001  1.991181e+000
      vertex  9.659258e-001  3.000000e+000  1.991181e+000
      vertex  1.000000e+000  3.000000e+000  2.250000e+000
    endloop
  endfacet
  facet normal -9.914449e-001  0.000000e+000  1.305262e-001
    outer loop
      vertex  9.659258e-001  1.500000e+001  1.991181e+000
      vertex  1.000000e+000  3.000000e+000  2.250000e+000
      vertex  1.000000e+000  1.500000e+001  2.250000e+000
    endloop
  endfacet
  facet normal -1.305258e-001  -0.000000e+000 -9.914449e-001
    outer loop
      vertex -6.123032e-017  3.000000e+000  3.250000e+000
      vertex  2.588190e-001  1.500000e+001  3.215926e+000
      vertex  2.588190e-001  3.000000e+000  3.215926e+000
    endloop
  endfacet
  facet normal -3.826836e-001  0.000000e+000 -9.238794e-001
    outer loop
      vertex  2.588190e-001  3.000000e+000  3.215926e+000
      vertex  2.588190e-001  1.500000e+001  3.215926e+000
      vertex  5.000000e-001  1.500000e+001  3.116025e+000
    endloop
  endfacet
  facet normal -3.826836e-001  -0.000000e+000 -9.238794e-001
    outer loop
      vertex  2.588190e-001  3.000000e+000  3.215926e+000
      vertex  5.000000e-001  1.500000e+001  3.116025e+000
      vertex  5.000000e-001  3.000000e+000  3.116025e+000
    endloop
  endfacet
  facet normal -6.087614e-001  0.000000e+000 -7.933533e-001
    outer loop
      vertex  5.000000e-001  3.000000e+000  3.116025e+000
      vertex  5.000000e-001  1.500000e+001  3.116025e+000
      vertex  7.071068e-001  1.500000e+001  2.957107e+000
    endloop
  endfacet
  facet normal -6.087614e-001  -0.000000e+000 -7.933533e-001
    outer loop
      vertex  5.000000e-001  3.000000e+000  3.116025e+000
      vertex  7.071068e-001  1.500000e+001  2.957107e+000
      vertex  7.071068e-001  3.000000e+000  2.957107e+000
    endloop
  endfacet
  facet normal -7.933533e-001  0.000000e+000 -6.087613e-001
    outer loop
      vertex  7.071068e-001  3.000000e+000  2.957107e+000
      vertex  7.071068e-001  1.500000e+001  2.957107e+000
      vertex  8.660254e-001  1.500000e+001  2.750000e+000
    endloop
  endfacet
  facet normal -7.933533e-001  -0.000000e+000 -6.087613e-001
    outer loop
      vertex  7.071068e-001  3.000000e+000  2.957107e+000
      vertex  8.660254e-001  1.500000e+001  2.750000e+000
      vertex  8.660254e-001  3.000000e+000  2.750000e+000
    endloop
  endfacet
  facet normal -9.238796e-001  0.000000e+000 -3.826835e-001
    outer loop
      vertex  8.660254e-001  3.000000e+000  2.750000e+000
      vertex  8.660254e-001  1.500000e+001  2.750000e+000
      vertex  9.659258e-001  1.500000e+001  2.508819e+000
    endloop
  endfacet
  facet normal -9.238796e-001  -0.000000e+000 -3.826835e-001
    outer loop
      vertex  8.660254e-001  3.000000e+000  2.750000e+000
      vertex  9.659258e-001  1.500000e+001  2.508819e+000
      vertex  9.659258e-001  3.000000e+000  2.508819e+000
    endloop
  endfacet
  facet normal -9.914449e-001  0.000000e+000 -1.305262e-001
    outer loop
      vertex  9.659258e-001  3.000000e+000  2.508819e+000
      vertex  9.659258e-001  1.500000e+001  2.508819e+000
      vertex  1.000000e+000  1.500000e+001  2.250000e+000
    endloop
  endfacet
  facet normal -9.914449e-001  -0.000000e+000 -1.305262e-001
    outer loop
      vertex  9.659258e-001  3.000000e+000  2.508819e+000
      vertex  1.000000e+000  1.500000e+001  2.250000e+000
      vertex  1.000000e+000  3.000000e+000  2.250000e+000
    endloop
  endfacet
  facet normal -1.305258e-001  0.000000e+000 -9.914449e-001
    outer loop
      vertex  2.588190e-001  1.500000e+001  3.215926e+000
      vertex -6.123032e-017  3.000000e+000  3.250000e+000
      vertex -6.123032e-017  1.500000e+001  3.250000e+000
    endloop
  endfacet
  facet normal  1.305258e-001  0.000000e+000 -9.914449e-001
    outer loop
      vertex -6.123032e-017  1.500000e+001  3.250000e+000
      vertex -6.123032e-017  3.000000e+000  3.250000e+000
      vertex -2.588190e-001  3.000000e+000  3.215926e+000
    endloop
  endfacet
  facet normal  1.305258e-001  0.000000e+000 -9.914449e-001
    outer loop
      vertex -6.123032e-017  1.500000e+001  3.250000e+000
      vertex -2.588190e-001  3.000000e+000  3.215926e+000
      vertex -2.588190e-001  1.500000e+001  3.215926e+000
    endloop
  endfacet
  facet normal  3.826836e-001  0.000000e+000 -9.238794e-001
    outer loop
      vertex -2.588190e-001  1.500000e+001  3.215926e+000
      vertex -2.588190e-001  3.000000e+000  3.215926e+000
      vertex -5.000000e-001  3.000000e+000  3.116025e+000
    endloop
  endfacet
  facet normal  3.826836e-001  0.000000e+000 -9.238794e-001
    outer loop
      vertex -2.588190e-001  1.500000e+001  3.215926e+000
      vertex -5.000000e-001  3.000000e+000  3.116025e+000
      vertex -5.000000e-001  1.500000e+001  3.116025e+000
    endloop
  endfacet
  facet normal  6.087614e-001  0.000000e+000 -7.933533e-001
    outer loop
      vertex -5.000000e-001  1.500000e+001  3.116025e+000
      vertex -5.000000e-001  3.000000e+000  3.116025e+000
      vertex -7.071068e-001  3.000000e+000  2.957107e+000
    endloop
  endfacet
  facet normal  6.087614e-001  0.000000e+000 -7.933533e-001
    outer loop
      vertex -5.000000e-001  1.500000e+001  3.116025e+000
      vertex -7.071068e-001  3.000000e+000  2.957107e+000
      vertex -7.071068e-001  1.500000e+001  2.957107e+000
    endloop
  endfacet
  facet normal  7.933533e-001  0.000000e+000 -6.087613e-001
    outer loop
      vertex -7.071068e-001  1.500000e+001  2.957107e+000
      vertex -7.071068e-001  3.000000e+000  2.957107e+000
      vertex -8.660254e-001  3.000000e+000  2.750000e+000
    endloop
  endfacet
  facet normal  7.933533e-001  0.000000e+000 -6.087613e-001
    outer loop
      vertex -7.071068e-001  1.500000e+001  2.957107e+000
      vertex -8.660254e-001  3.000000e+000  2.750000e+000
      vertex -8.660254e-001  1.500000e+001  2.750000e+000
    endloop
  endfacet
  facet normal  9.238796e-001  0.000000e+000 -3.826835e-001
    outer loop
      vertex -8.660254e-001  1.500000e+001  2.750000e+000
      vertex -8.660254e-001  3.000000e+000  2.750000e+000
      vertex -9.659258e-001  3.000000e+000  2.508819e+000
    endloop
  endfacet
  facet normal  9.238796e-001  0.000000e+000 -3.826835e-001
    outer loop
      vertex -8.660254e-001  1.500000e+001  2.750000e+000
      vertex -9.659258e-001  3.000000e+000  2.508819e+000
      vertex -9.659258e-001  1.500000e+001  2.508819e+000
    endloop
  endfacet
  facet normal  9.914449e-001  0.000000e+000 -1.305262e-001
    outer loop
      vertex -9.659258e-001  1.500000e+001  2.508819e+000
      vertex -9.659258e-001  3.000000e+000  2.508819e+000
      vertex -1.000000e+000  3.000000e+000  2.250000e+000
    endloop
  endfacet
  facet normal  9.914449e-001  0.000000e+000 -1.305262e-001
    outer loop
      vertex -9.659258e-001  1.500000e+001  2.508819e+000
      vertex -1.000000e+000  3.000000e+000  2.250000e+000
      vertex -1.000000e+000  1.500000e+001  2.250000e+000
    endloop
  endfacet
  facet normal  0.000000e+000  9.999999e-001  0.000000e+000
    outer loop
      vertex  2.588190e-001  3.000000e+000  3.215926e+000
      vertex -2.588190e-001  3.000000e+000  3.215926e+000
      vertex -6.123032e-017  3.000000e+000  3.250000e+000
    endloop
  endfacet
  facet normal  0.000000e+000  1.000000e+000  0.000000e+000
    outer loop
      vertex -2.588190e-001  3.000000e+000  3.215926e+000
      vertex  2.588190e-001  3.000000e+000  3.215926e+000
      vertex -5.000000e-001  3.000000e+000  3.116025e+000
    endloop
  endfacet
  facet normal  0.000000e+000  9.999999e-001  0.000000e+000
    outer loop
      vertex -5.000000e-001  3.000000e+000  3.116025e+000
      vertex  2.588190e-001  3.000000e+000  3.215926e+000
      vertex  5.000000e-001  3.000000e+000  3.116025e+000
    endloop
  endfacet
  facet normal  0.000000e+000  1.000000e+000  0.000000e+000
    outer loop
      vertex -5.000000e-001  3.000000e+000  3.116025e+000
      vertex  5.000000e-001  3.000000e+000  3.116025e+000
      vertex -7.071068e-001  3.000000e+000  2.957107e+000
    endloop
  endfacet
  facet normal  0.000000e+000  1.000000e+000  0.000000e+000
    outer loop
      vertex -7.071068e-001  3.000000e+000  2.957107e+000
      vertex  5.000000e-001  3.000000e+000  3.116025e+000
      vertex  7.071068e-001  3.000000e+000  2.957107e+000
    endloop
  endfacet
  facet normal  0.000000e+000  1.000000e+000  0.000000e+000
    outer loop
      vertex -7.071068e-001  3.000000e+000  2.957107e+000
      vertex  7.071068e-001  3.000000e+000  2.957107e+000
      vertex -8.660254e-001  3.000000e+000  2.750000e+000
    endloop
  endfacet
  facet normal  0.000000e+000  1.000000e+000  0.000000e+000
    outer loop
      vertex -8.660254e-001  3.000000e+000  2.750000e+000
      vertex  7.071068e-001  3.000000e+000  2.957107e+000
      vertex  8.660254e-001  3.000000e+000  2.750000e+000
    endloop
  endfacet
  facet normal  0.000000e+000  1.000000e+000  0.000000e+000
    outer loop
      vertex -8.660254e-001  3.000000e+000  2.750000e+000
      vertex  8.660254e-001  3.000000e+000  2.750000e+000
      vertex -9.659258e-001  3.000000e+000  2.508819e+000
    endloop
  endfacet
  facet normal  0.000000e+000  1.000000e+000  0.000000e+000
    outer loop
      vertex -9.659258e-001  3.000000e+000  2.508819e+000
      vertex  8.660254e-001  3.000000e+000  2.750000e+000
      vertex  9.659258e-001  3.000000e+000  2.508819e+000
    endloop
  endfacet
  facet normal  0.000000e+000  1.000000e+000  0.000000e+000
    outer loop
      vertex -9.659258e-001  3.000000e+000  2.508819e+000
      vertex  9.659258e-001  3.000000e+000  2.508819e+000
      vertex -1.000000e+000  3.000000e+000  2.250000e+000
    endloop
  endfacet
  facet normal  0.000000e+000  1.000000e+000  0.000000e+000
    outer loop
      vertex -1.000000e+000  3.000000e+000  2.250000e+000
      vertex  9.659258e-001  3.000000e+000  2.508819e+000
      vertex  1.000000e+000  3.000000e+000  2.250000e+000
    endloop
  endfacet
  facet normal  0.000000e+000  1.000000e+000  0.000000e+000
    outer loop
      vertex -1.000000e+000  3.000000e+000  2.250000e+000
      vertex  1.000000e+000  3.000000e+000  2.250000e+000
      vertex -9.659258e-001  3.000000e+000  1.991181e+000
    endloop
  endfacet
  facet normal  0.000000e+000  1.000000e+000  0.000000e+000
    outer loop
      vertex -9.659258e-001  3.000000e+000  1.991181e+000
      vertex  1.000000e+000  3.000000e+000  2.250000e+000
      vertex  9.659258e-001  3.000000e+000  1.991181e+000
    endloop
  endfacet
  facet normal  0.000000e+000  1.000000e+000  0.000000e+000
    outer loop
      vertex -9.659258e-001  3.000000e+000  1.991181e+000
      vertex  9.659258e-001  3.000000e+000  1.991181e+000
      vertex -8.660254e-001  3.000000e+000  1.750000e+000
    endloop
  endfacet
  facet normal  0.000000e+000  1.000000e+000  0.000000e+000
    outer loop
      vertex -8.660254e-001  3.000000e+000  1.750000e+000
      vertex  9.659258e-001  3.000000e+000  1.991181e+000
      vertex  8.660254e-001  3.000000e+000  1.750000e+000
    endloop
  endfacet
  facet normal  0.000000e+000  1.000000e+000  0.000000e+000
    outer loop
      vertex -8.660254e-001  3.000000e+000  1.750000e+000
      vertex  8.660254e-001  3.000000e+000  1.750000e+000
      vertex -7.071068e-001  3.000000e+000  1.542893e+000
    endloop
  endfacet
  facet normal  0.000000e+000  1.000000e+000  0.000000e+000
    outer loop
      vertex -7.071068e-001  3.000000e+000  1.542893e+000
      vertex  8.660254e-001  3.000000e+000  1.750000e+000
      vertex  7.071068e-001  3.000000e+000  1.542893e+000
    endloop
  endfacet
  facet normal  0.000000e+000  1.000000e+000  0.000000e+000
    outer loop
      vertex -7.071068e-001  3.000000e+000  1.542893e+000
      vertex  7.071068e-001  3.000000e+000  1.542893e+000
      vertex -5.000000e-001  3.000000e+000  1.383975e+000
    endloop
  endfacet
  facet normal  0.000000e+000  1.000000e+000  0.000000e+000
    outer loop
      vertex -5.000000e-001  3.000000e+000  1.383975e+000
      vertex  7.071068e-001  3.000000e+000  1.542893e+000
      vertex  5.000000e-001  3.000000e+000  1.383975e+000
    endloop
  endfacet
  facet normal  0.000000e+000  1.000000e+000  0.000000e+000
    outer loop
      vertex -5.000000e-001  3.000000e+000  1.383975e+000
      vertex  5.000000e-001  3.000000e+000  1.383975e+000
      vertex -2.588190e-001  3.000000e+000  1.284074e+000
    endloop
  endfacet
  facet normal  0.000000e+000  1.000000e+000  0.000000e+000
    outer loop
      vertex -2.588190e-001  3.000000e+000  1.284074e+000
      vertex  5.000000e-001  3.000000e+000  1.383975e+000
      vertex  2.588190e-001  3.000000e+000  1.284074e+000
    endloop
  endfacet
  facet normal  0.000000e+000  1.000000e+000  0.000000e+000
    outer loop
      vertex -2.588190e-001  3.000000e+000  1.284074e+000
      vertex  2.588190e-001  3.000000e+000  1.284074e+000
      vertex  1.836910e-016  3.000000e+000  1.250000e+000
    endloop
  endfacet
  facet normal -4.961390e-001  8.682432e-001  0.000000e+000
    outer loop
      vertex -2.250000e+000  0.000000e+000  0.000000e+000
      vertex -5.466681e+000 -1.838104e+000  0.000000e+000
      vertex -2.250000e+000 -1.776357e-015  3.500000e+000
    endloop
  endfacet
  facet normal -4.961390e-001  8.682432e-001  0.000000e+000
    outer loop
      vertex -2.250000e+000 -1.776357e-015  3.500000e+000
      vertex -5.466681e+000 -1.838104e+000  0.000000e+000
      vertex -5.466681e+000 -1.838104e+000  3.500000e+000
    endloop
  endfacet
  facet normal -1.631702e-001 -9.865980e-001  -0.000000e+000
    outer loop
      vertex -5.158123e+000 -3.000000e+000  0.000000e+000
      vertex -5.158123e+000 -3.000000e+000  3.500000e+000
      vertex -5.358360e+000 -2.966883e+000  0.000000e+000
    endloop
  endfacet
  facet normal -1.631702e-001 -9.865980e-001  0.000000e+000
    outer loop
      vertex -5.358360e+000 -2.966883e+000  0.000000e+000
      vertex -5.158123e+000 -3.000000e+000  3.500000e+000
      vertex -5.358360e+000 -2.966883e+000  3.500000e+000
    endloop
  endfacet
  facet normal -4.721334e-001 -8.815271e-001  -0.000000e+000
    outer loop
      vertex -5.358360e+000 -2.966883e+000  0.000000e+000
      vertex -5.358360e+000 -2.966883e+000  3.500000e+000
      vertex -5.537272e+000 -2.871061e+000  0.000000e+000
    endloop
  endfacet
  facet normal -4.721334e-001 -8.815271e-001  0.000000e+000
    outer loop
      vertex -5.537272e+000 -2.871061e+000  0.000000e+000
      vertex -5.358360e+000 -2.966883e+000  3.500000e+000
      vertex -5.537272e+000 -2.871061e+000  3.500000e+000
    endloop
  endfacet
  facet normal -7.308148e-001 -6.825759e-001  -0.000000e+000
    outer loop
      vertex -5.537272e+000 -2.871061e+000  0.000000e+000
      vertex -5.537272e+000 -2.871061e+000  3.500000e+000
      vertex -5.675806e+000 -2.722737e+000  0.000000e+000
    endloop
  endfacet
  facet normal -7.308148e-001 -6.825759e-001  0.000000e+000
    outer loop
      vertex -5.675806e+000 -2.722737e+000  0.000000e+000
      vertex -5.537272e+000 -2.871061e+000  3.500000e+000
      vertex -5.675806e+000 -2.722737e+000  3.500000e+000
    endloop
  endfacet
  facet normal -9.116657e-001 -4.109326e-001  -0.000000e+000
    outer loop
      vertex -5.675806e+000 -2.722737e+000  0.000000e+000
      vertex -5.675806e+000 -2.722737e+000  3.500000e+000
      vertex -5.759208e+000 -2.537708e+000  0.000000e+000
    endloop
  endfacet
  facet normal -9.116657e-001 -4.109326e-001  0.000000e+000
    outer loop
      vertex -5.759208e+000 -2.537708e+000  0.000000e+000
      vertex -5.675806e+000 -2.722737e+000  3.500000e+000
      vertex -5.759208e+000 -2.537708e+000  3.500000e+000
    endloop
  endfacet
  facet normal -9.954271e-001 -9.552375e-002  -0.000000e+000
    outer loop
      vertex -5.759208e+000 -2.537708e+000  0.000000e+000
      vertex -5.759208e+000 -2.537708e+000  3.500000e+000
      vertex -5.778595e+000 -2.335678e+000  0.000000e+000
    endloop
  endfacet
  facet normal -9.954271e-001 -9.552375e-002  0.000000e+000
    outer loop
      vertex -5.778595e+000 -2.335678e+000  0.000000e+000
      vertex -5.759208e+000 -2.537708e+000  3.500000e+000
      vertex -5.778595e+000 -2.335678e+000  3.500000e+000
    endloop
  endfacet
  facet normal -9.731776e-001  2.300555e-001  0.000000e+000
    outer loop
      vertex -5.778595e+000 -2.335678e+000  0.000000e+000
      vertex -5.778595e+000 -2.335678e+000  3.500000e+000
      vertex -5.731904e+000 -2.138165e+000  0.000000e+000
    endloop
  endfacet
  facet normal -9.731776e-001  2.300555e-001  0.000000e+000
    outer loop
      vertex -5.731904e+000 -2.138165e+000  0.000000e+000
      vertex -5.778595e+000 -2.335678e+000  3.500000e+000
      vertex -5.731904e+000 -2.138165e+000  3.500000e+000
    endloop
  endfacet
  facet normal -8.472859e-001  5.311372e-001  0.000000e+000
    outer loop
      vertex -5.731904e+000 -2.138165e+000  0.000000e+000
      vertex -5.731904e+000 -2.138165e+000  3.500000e+000
      vertex -5.624105e+000 -1.966202e+000  0.000000e+000
    endloop
  endfacet
  facet normal -8.472859e-001  5.311372e-001  0.000000e+000
    outer loop
      vertex -5.624105e+000 -1.966202e+000  0.000000e+000
      vertex -5.731904e+000 -2.138165e+000  3.500000e+000
      vertex -5.624105e+000 -1.966202e+000  3.500000e+000
    endloop
  endfacet
  facet normal -6.311612e-001  7.756518e-001  0.000000e+000
    outer loop
      vertex -5.624105e+000 -1.966202e+000  0.000000e+000
      vertex -5.624105e+000 -1.966202e+000  3.500000e+000
      vertex -5.466681e+000 -1.838104e+000  0.000000e+000
    endloop
  endfacet
  facet normal -6.311612e-001  7.756518e-001  0.000000e+000
    outer loop
      vertex -5.466681e+000 -1.838104e+000  0.000000e+000
      vertex -5.624105e+000 -1.966202e+000  3.500000e+000
      vertex -5.466681e+000 -1.838104e+000  3.500000e+000
    endloop
  endfacet
  facet normal  0.000000e+000 -1.000000e+000  0.000000e+000
    outer loop
      vertex -5.158123e+000 -3.000000e+000  3.500000e+000
      vertex -5.158123e+000 -3.000000e+000  0.000000e+000
      vertex  5.617218e+000 -3.000000e+000  3.500000e+000
    endloop
  endfacet
  facet normal  0.000000e+000 -1.000000e+000  -0.000000e+000
    outer loop
      vertex  5.617218e+000 -3.000000e+000  3.500000e+000
      vertex -5.158123e+000 -3.000000e+000  0.000000e+000
      vertex  5.617218e+000 -3.000000e+000  0.000000e+000
    endloop
  endfacet
  facet normal  6.491483e-001  7.606618e-001  0.000000e+000
    outer loop
      vertex  5.865287e+000 -2.065878e+000  0.000000e+000
      vertex  5.865287e+000 -2.065878e+000  3.500000e+000
      vertex  6.006941e+000 -2.186765e+000  0.000000e+000
    endloop
  endfacet
  facet normal  6.491483e-001  7.606618e-001  -0.000000e+000
    outer loop
      vertex  6.006941e+000 -2.186765e+000  0.000000e+000
      vertex  5.865287e+000 -2.065878e+000  3.500000e+000
      vertex  6.006941e+000 -2.186765e+000  3.500000e+000
    endloop
  endfacet
  facet normal  8.824752e-001  4.703588e-001  0.000000e+000
    outer loop
      vertex  6.006941e+000 -2.186765e+000  0.000000e+000
      vertex  6.006941e+000 -2.186765e+000  3.500000e+000
      vertex  6.094533e+000 -2.351104e+000  0.000000e+000
    endloop
  endfacet
  facet normal  8.824752e-001  4.703588e-001  -0.000000e+000
    outer loop
      vertex  6.094533e+000 -2.351104e+000  0.000000e+000
      vertex  6.006941e+000 -2.186765e+000  3.500000e+000
      vertex  6.094533e+000 -2.351104e+000  3.500000e+000
    endloop
  endfacet
  facet normal  9.933877e-001  1.148076e-001  0.000000e+000
    outer loop
      vertex  6.094533e+000 -2.351104e+000  0.000000e+000
      vertex  6.094533e+000 -2.351104e+000  3.500000e+000
      vertex  6.115913e+000 -2.536096e+000  0.000000e+000
    endloop
  endfacet
  facet normal  9.933877e-001  1.148076e-001  -0.000000e+000
    outer loop
      vertex  6.115913e+000 -2.536096e+000  0.000000e+000
      vertex  6.094533e+000 -2.351104e+000  3.500000e+000
      vertex  6.115913e+000 -2.536096e+000  3.500000e+000
    endloop
  endfacet
  facet normal  9.664997e-001 -2.566676e-001  0.000000e+000
    outer loop
      vertex  6.115913e+000 -2.536096e+000  0.000000e+000
      vertex  6.115913e+000 -2.536096e+000  3.500000e+000
      vertex  6.068115e+000 -2.716082e+000  0.000000e+000
    endloop
  endfacet
  facet normal  9.664997e-001 -2.566676e-001  0.000000e+000
    outer loop
      vertex  6.068115e+000 -2.716082e+000  0.000000e+000
      vertex  6.115913e+000 -2.536096e+000  3.500000e+000
      vertex  6.068115e+000 -2.716082e+000  3.500000e+000
    endloop
  endfacet
  facet normal  8.055418e-001 -5.925390e-001  0.000000e+000
    outer loop
      vertex  6.068115e+000 -2.716082e+000  0.000000e+000
      vertex  6.068115e+000 -2.716082e+000  3.500000e+000
      vertex  5.957770e+000 -2.866093e+000  0.000000e+000
    endloop
  endfacet
  facet normal  8.055418e-001 -5.925390e-001  0.000000e+000
    outer loop
      vertex  5.957770e+000 -2.866093e+000  0.000000e+000
      vertex  6.068115e+000 -2.716082e+000  3.500000e+000
      vertex  5.957770e+000 -2.866093e+000  3.500000e+000
    endloop
  endfacet
  facet normal  5.328394e-001 -8.462164e-001  0.000000e+000
    outer loop
      vertex  5.957770e+000 -2.866093e+000  0.000000e+000
      vertex  5.957770e+000 -2.866093e+000  3.500000e+000
      vertex  5.800184e+000 -2.965321e+000  0.000000e+000
    endloop
  endfacet
  facet normal  5.328394e-001 -8.462164e-001  0.000000e+000
    outer loop
      vertex  5.800184e+000 -2.965321e+000  0.000000e+000
      vertex  5.957770e+000 -2.866093e+000  3.500000e+000
      vertex  5.800184e+000 -2.965321e+000  3.500000e+000
    endloop
  endfacet
  facet normal  1.862244e-001 -9.825073e-001  0.000000e+000
    outer loop
      vertex  5.800184e+000 -2.965321e+000  0.000000e+000
      vertex  5.800184e+000 -2.965321e+000  3.500000e+000
      vertex  5.617218e+000 -3.000000e+000  0.000000e+000
    endloop
  endfacet
  facet normal  1.862244e-001 -9.825073e-001  0.000000e+000
    outer loop
      vertex  5.617218e+000 -3.000000e+000  0.000000e+000
      vertex  5.800184e+000 -2.965321e+000  3.500000e+000
      vertex  5.617218e+000 -3.000000e+000  3.500000e+000
    endloop
  endfacet
  facet normal  4.961390e-001  8.682432e-001  0.000000e+000
    outer loop
      vertex  5.865287e+000 -2.065878e+000  0.000000e+000
      vertex  2.250000e+000  0.000000e+000  0.000000e+000
      vertex  5.865287e+000 -2.065878e+000  3.500000e+000
    endloop
  endfacet
  facet normal  4.961390e-001  8.682432e-001  0.000000e+000
    outer loop
      vertex  5.865287e+000 -2.065878e+000  3.500000e+000
      vertex  2.250000e+000  0.000000e+000  0.000000e+000
      vertex  2.250000e+000 -8.881784e-016  3.500000e+000
    endloop
  endfacet
  facet normal -1.000000e+000  0.000000e+000  0.000000e+000
    outer loop
      vertex -2.250000e+000  1.500000e+001  0.000000e+000
      vertex -2.250000e+000  0.000000e+000  0.000000e+000
      vertex -2.250000e+000 -1.776357e-015  3.500000e+000
    endloop
  endfacet
  facet normal -1.000000e+000  0.000000e+000  0.000000e+000
    outer loop
      vertex -2.250000e+000  1.500000e+001  0.000000e+000
      vertex -2.250000e+000 -1.776357e-015  3.500000e+000
      vertex -2.250000e+000  1.250000e+000  3.500000e+000
    endloop
  endfacet
  facet normal -9.999999e-001  0.000000e+000  0.000000e+000
    outer loop
      vertex -2.250000e+000  1.500000e+001  0.000000e+000
      vertex -2.250000e+000  1.250000e+000  3.500000e+000
      vertex -2.250000e+000  1.250000e+000  4.500000e+000
    endloop
  endfacet
  facet normal -1.000000e+000  0.000000e+000  0.000000e+000
    outer loop
      vertex -2.250000e+000  1.500000e+001  0.000000e+000
      vertex -2.250000e+000  1.250000e+000  4.500000e+000
      vertex -2.250000e+000  1.500000e+001  4.500000e+000
    endloop
  endfacet
  facet normal  1.000000e+000  -0.000000e+000  0.000000e+000
    outer loop
      vertex  2.250000e+000  1.500000e+001  4.500000e+000
      vertex  2.250000e+000  1.250000e+000  4.500000e+000
      vertex  2.250000e+000  1.500000e+001  0.000000e+000
    endloop
  endfacet
  facet normal  9.999999e-001  0.000000e+000  0.000000e+000
    outer loop
      vertex  2.250000e+000  1.500000e+001  0.000000e+000
      vertex  2.250000e+000  1.250000e+000  4.500000e+000
      vertex  2.250000e+000  1.250000e+000  3.500000e+000
    endloop
  endfacet
  facet normal  1.000000e+000  0.000000e+000  0.000000e+000
    outer loop
      vertex  2.250000e+000  1.500000e+001  0.000000e+000
      vertex  2.250000e+000  1.250000e+000  3.500000e+000
      vertex  2.250000e+000  0.000000e+000  0.000000e+000
    endloop
  endfacet
  facet normal  1.000000e+000  0.000000e+000  -0.000000e+000
    outer loop
      vertex  2.250000e+000  0.000000e+000  0.000000e+000
      vertex  2.250000e+000  1.250000e+000  3.500000e+000
      vertex  2.250000e+000 -8.881784e-016  3.500000e+000
    endloop
  endfacet
  facet normal  0.000000e+000  0.000000e+000  1.000000e+000
    outer loop
      vertex -2.250000e+000  1.250000e+000  4.500000e+000
      vertex  2.250000e+000  1.250000e+000  4.500000e+000
      vertex -2.250000e+000  1.500000e+001  4.500000e+000
    endloop
  endfacet
  facet normal  -0.000000e+000  0.000000e+000  1.000000e+000
    outer loop
      vertex -2.250000e+000  1.500000e+001  4.500000e+000
      vertex  2.250000e+000  1.250000e+000  4.500000e+000
      vertex  2.250000e+000  1.500000e+001  4.500000e+000
    endloop
  endfacet
  facet normal  0.000000e+000 -1.000000e+000  0.000000e+000
    outer loop
      vertex -2.250000e+000  1.250000e+000  3.500000e+000
      vertex  2.250000e+000  1.250000e+000  3.500000e+000
      vertex -2.250000e+000  1.250000e+000  4.500000e+000
    endloop
  endfacet
  facet normal  0.000000e+000 -1.000000e+000  0.000000e+000
    outer loop
      vertex -2.250000e+000  1.250000e+000  4.500000e+000
      vertex  2.250000e+000  1.250000e+000  3.500000e+000
      vertex  2.250000e+000  1.250000e+000  4.500000e+000
    endloop
  endfacet
  facet normal  -0.000000e+000  0.000000e+000  1.000000e+000
    outer loop
      vertex  2.250000e+000  1.250000e+000  3.500000e+000
      vertex -2.250000e+000  1.250000e+000  3.500000e+000
      vertex  2.250000e+000 -8.881784e-016  3.500000e+000
    endloop
  endfacet
  facet normal  0.000000e+000  0.000000e+000  1.000000e+000
    outer loop
      vertex  2.250000e+000 -8.881784e-016  3.500000e+000
      vertex -2.250000e+000  1.250000e+000  3.500000e+000
      vertex -2.250000e+000 -1.776357e-015  3.500000e+000
    endloop
  endfacet
  facet normal  -0.000000e+000  0.000000e+000  1.000000e+000
    outer loop
      vertex  2.250000e+000 -8.881784e-016  3.500000e+000
      vertex -2.250000e+000 -1.776357e-015  3.500000e+000
      vertex  5.865287e+000 -2.065878e+000  3.500000e+000
    endloop
  endfacet
  facet normal  0.000000e+000  0.000000e+000  9.999999e-001
    outer loop
      vertex  5.865287e+000 -2.065878e+000  3.500000e+000
      vertex -2.250000e+000 -1.776357e-015  3.500000e+000
      vertex -5.466681e+000 -1.838104e+000  3.500000e+000
    endloop
  endfacet
  facet normal  0.000000e+000  0.000000e+000  1.000000e+000
    outer loop
      vertex  5.865287e+000 -2.065878e+000  3.500000e+000
      vertex -5.466681e+000 -1.838104e+000  3.500000e+000
      vertex -5.624105e+000 -1.966202e+000  3.500000e+000
    endloop
  endfacet
  facet normal  0.000000e+000  0.000000e+000  1.000000e+000
    outer loop
      vertex  5.865287e+000 -2.065878e+000  3.500000e+000
      vertex -5.624105e+000 -1.966202e+000  3.500000e+000
      vertex  6.006941e+000 -2.186765e+000  3.500000e+000
    endloop
  endfacet
  facet normal  0.000000e+000  0.000000e+000  1.000000e+000
    outer loop
      vertex  6.006941e+000 -2.186765e+000  3.500000e+000
      vertex -5.624105e+000 -1.966202e+000  3.500000e+000
      vertex -5.731904e+000 -2.138165e+000  3.500000e+000
    endloop
  endfacet
  facet normal  0.000000e+000  0.000000e+000  9.999999e-001
    outer loop
      vertex  6.006941e+000 -2.186765e+000  3.500000e+000
      vertex -5.731904e+000 -2.138165e+000  3.500000e+000
      vertex  6.094533e+000 -2.351104e+000  3.500000e+000
    endloop
  endfacet
  facet normal  0.000000e+000  0.000000e+000  1.000000e+000
    outer loop
      vertex  6.094533e+000 -2.351104e+000  3.500000e+000
      vertex -5.731904e+000 -2.138165e+000  3.500000e+000
      vertex -5.778595e+000 -2.335678e+000  3.500000e+000
    endloop
  endfacet
  facet normal  0.000000e+000  0.000000e+000  1.000000e+000
    outer loop
      vertex  6.094533e+000 -2.351104e+000  3.500000e+000
      vertex -5.778595e+000 -2.335678e+000  3.500000e+000
      vertex  6.115913e+000 -2.536096e+000  3.500000e+000
    endloop
  endfacet
  facet normal  0.000000e+000  0.000000e+000  1.000000e+000
    outer loop
      vertex  6.115913e+000 -2.536096e+000  3.500000e+000
      vertex -5.778595e+000 -2.335678e+000  3.500000e+000
      vertex -5.759208e+000 -2.537708e+000  3.500000e+000
    endloop
  endfacet
  facet normal  -0.000000e+000  0.000000e+000  1.000000e+000
    outer loop
      vertex  6.115913e+000 -2.536096e+000  3.500000e+000
      vertex -5.759208e+000 -2.537708e+000  3.500000e+000
      vertex  6.068115e+000 -2.716082e+000  3.500000e+000
    endloop
  endfacet
  facet normal  0.000000e+000  0.000000e+000  1.000000e+000
    outer loop
      vertex  6.068115e+000 -2.716082e+000  3.500000e+000
      vertex -5.759208e+000 -2.537708e+000  3.500000e+000
      vertex -5.675806e+000 -2.722737e+000  3.500000e+000
    endloop
  endfacet
  facet normal  -0.000000e+000  0.000000e+000  9.999999e-001
    outer loop
      vertex  6.068115e+000 -2.716082e+000  3.500000e+000
      vertex -5.675806e+000 -2.722737e+000  3.500000e+000
      vertex  5.957770e+000 -2.866093e+000  3.500000e+000
    endloop
  endfacet
  facet normal  0.000000e+000  0.000000e+000  1.000000e+000
    outer loop
      vertex  5.957770e+000 -2.866093e+000  3.500000e+000
      vertex -5.675806e+000 -2.722737e+000  3.500000e+000
      vertex -5.537272e+000 -2.871061e+000  3.500000e+000
    endloop
  endfacet
  facet normal  -0.000000e+000  0.000000e+000  1.000000e+000
    outer loop
      vertex  5.957770e+000 -2.866093e+000  3.500000e+000
      vertex -5.537272e+000 -2.871061e+000  3.500000e+000
      vertex  5.800184e+000 -2.965321e+000  3.500000e+000
    endloop
  endfacet
  facet normal  0.000000e+000  0.000000e+000  1.000000e+000
    outer loop
      vertex  5.800184e+000 -2.965321e+000  3.500000e+000
      vertex -5.537272e+000 -2.871061e+000  3.500000e+000
      vertex -5.358360e+000 -2.966883e+000  3.500000e+000
    endloop
  endfacet
  facet normal  -0.000000e+000  0.000000e+000  1.000000e+000
    outer loop
      vertex  5.800184e+000 -2.965321e+000  3.500000e+000
      vertex -5.358360e+000 -2.966883e+000  3.500000e+000
      vertex  5.617218e+000 -3.000000e+000  3.500000e+000
    endloop
  endfacet
  facet normal  0.000000e+000  0.000000e+000  1.000000e+000
    outer loop
      vertex  5.617218e+000 -3.000000e+000  3.500000e+000
      vertex -5.358360e+000 -2.966883e+000  3.500000e+000
      vertex -5.158123e+000 -3.000000e+000  3.500000e+000
    endloop
  endfacet
  facet normal  0.000000e+000  -0.000000e+000 -1.000000e+000
    outer loop
      vertex -5.624105e+000 -1.966202e+000  0.000000e+000
      vertex -5.466681e+000 -1.838104e+000  0.000000e+000
      vertex  5.865287e+000 -2.065878e+000  0.000000e+000
    endloop
  endfacet
  facet normal  0.000000e+000  0.000000e+000 -9.999999e-001
    outer loop
      vertex  5.865287e+000 -2.065878e+000  0.000000e+000
      vertex -5.466681e+000 -1.838104e+000  0.000000e+000
      vertex -2.250000e+000  0.000000e+000  0.000000e+000
    endloop
  endfacet
  facet normal  0.000000e+000  0.000000e+000 -1.000000e+000
    outer loop
      vertex  5.865287e+000 -2.065878e+000  0.000000e+000
      vertex -2.250000e+000  0.000000e+000  0.000000e+000
      vertex  2.250000e+000  0.000000e+000  0.000000e+000
    endloop
  endfacet
  facet normal  0.000000e+000  0.000000e+000 -1.000000e+000
    outer loop
      vertex  2.250000e+000  0.000000e+000  0.000000e+000
      vertex -2.250000e+000  0.000000e+000  0.000000e+000
      vertex -2.250000e+000  1.500000e+001  0.000000e+000
    endloop
  endfacet
  facet normal  0.000000e+000  0.000000e+000 -1.000000e+000
    outer loop
      vertex  2.250000e+000  0.000000e+000  0.000000e+000
      vertex -2.250000e+000  1.500000e+001  0.000000e+000
      vertex  2.250000e+000  1.500000e+001  0.000000e+000
    endloop
  endfacet
  facet normal  0.000000e+000  0.000000e+000 -1.000000e+000
    outer loop
      vertex  6.115913e+000 -2.536096e+000  0.000000e+000
      vertex -5.778595e+000 -2.335678e+000  0.000000e+000
      vertex  6.094533e+000 -2.351104e+000  0.000000e+000
    endloop
  endfacet
  facet normal  0.000000e+000  0.000000e+000 -1.000000e+000
    outer loop
      vertex  6.094533e+000 -2.351104e+000  0.000000e+000
      vertex -5.778595e+000 -2.335678e+000  0.000000e+000
      vertex -5.731904e+000 -2.138165e+000  0.000000e+000
    endloop
  endfacet
  facet normal  0.000000e+000  0.000000e+000 -9.999999e-001
    outer loop
      vertex  6.094533e+000 -2.351104e+000  0.000000e+000
      vertex -5.731904e+000 -2.138165e+000  0.000000e+000
      vertex  6.006941e+000 -2.186765e+000  0.000000e+000
    endloop
  endfacet
  facet normal  0.000000e+000  0.000000e+000 -1.000000e+000
    outer loop
      vertex  6.006941e+000 -2.186765e+000  0.000000e+000
      vertex -5.731904e+000 -2.138165e+000  0.000000e+000
      vertex -5.624105e+000 -1.966202e+000  0.000000e+000
    endloop
  endfacet
  facet normal  0.000000e+000  0.000000e+000 -1.000000e+000
    outer loop
      vertex  6.006941e+000 -2.186765e+000  0.000000e+000
      vertex -5.624105e+000 -1.966202e+000  0.000000e+000
      vertex  5.865287e+000 -2.065878e+000  0.000000e+000
    endloop
  endfacet
  facet normal  -0.000000e+000  0.000000e+000 -1.000000e+000
    outer loop
      vertex -5.778595e+000 -2.335678e+000  0.000000e+000
      vertex  6.115913e+000 -2.536096e+000  0.000000e+000
      vertex -5.759208e+000 -2.537708e+000  0.000000e+000
    endloop
  endfacet
  facet normal  0.000000e+000  0.000000e+000 -1.000000e+000
    outer loop
      vertex -5.759208e+000 -2.537708e+000  0.000000e+000
      vertex  6.115913e+000 -2.536096e+000  0.000000e+000
      vertex  6.068115e+000 -2.716082e+000  0.000000e+000
    endloop
  endfacet
  facet normal  -0.000000e+000  0.000000e+000 -1.000000e+000
    outer loop
      vertex -5.759208e+000 -2.537708e+000  0.000000e+000
      vertex  6.068115e+000 -2.716082e+000  0.000000e+000
      vertex -5.675806e+000 -2.722737e+000  0.000000e+000
    endloop
  endfacet
  facet normal  0.000000e+000  0.000000e+000 -9.999999e-001
    outer loop
      vertex -5.675806e+000 -2.722737e+000  0.000000e+000
      vertex  6.068115e+000 -2.716082e+000  0.000000e+000
      vertex  5.957770e+000 -2.866093e+000  0.000000e+000
    endloop
  endfacet
  facet normal  -0.000000e+000  0.000000e+000 -1.000000e+000
    outer loop
      vertex -5.675806e+000 -2.722737e+000  0.000000e+000
      vertex  5.957770e+000 -2.866093e+000  0.000000e+000
      vertex -5.537272e+000 -2.871061e+000  0.000000e+000
    endloop
  endfacet
  facet normal  0.000000e+000  0.000000e+000 -1.000000e+000
    outer loop
      vertex -5.537272e+000 -2.871061e+000  0.000000e+000
      vertex  5.957770e+000 -2.866093e+000  0.000000e+000
      vertex  5.800184e+000 -2.965321e+000  0.000000e+000
    endloop
  endfacet
  facet normal  -0.000000e+000  0.000000e+000 -1.000000e+000
    outer loop
      vertex -5.537272e+000 -2.871061e+000  0.000000e+000
      vertex  5.800184e+000 -2.965321e+000  0.000000e+000
      vertex -5.358360e+000 -2.966883e+000  0.000000e+000
    endloop
  endfacet
  facet normal  0.000000e+000  0.000000e+000 -1.000000e+000
    outer loop
      vertex -5.358360e+000 -2.966883e+000  0.000000e+000
      vertex  5.800184e+000 -2.965321e+000  0.000000e+000
      vertex  5.617218e+000 -3.000000e+000  0.000000e+000
    endloop
  endfacet
  facet normal  0.000000e+000  0.000000e+000 -1.000000e+000
    outer loop
      vertex -5.358360e+000 -2.966883e+000  0.000000e+000
      vertex  5.617218e+000 -3.000000e+000  0.000000e+000
      vertex -5.158123e+000 -3.000000e+000  0.000000e+000
    endloop
  endfacet
endsolid CATIA STL
